<?xml version="1.0" encoding="utf-8"?>
<!-- Generator: Adobe Illustrator 16.0.0, SVG Export Plug-In . SVG Version: 6.00 Build 0)  -->
<!DOCTYPE svg PUBLIC "-//W3C//DTD SVG 1.1//EN" "http://www.w3.org/Graphics/SVG/1.1/DTD/svg11.dtd">
<svg version="1.1" id="Layer_1" xmlns="http://www.w3.org/2000/svg" xmlns:xlink="http://www.w3.org/1999/xlink" x="0px" y="0px"
	 width="264.113px" height="58.415px" viewBox="0 0 264.113 58.415" enable-background="new 0 0 264.113 58.415"
	 xml:space="preserve">
<g>
	<rect y="5.155" fill="none" width="169.096" height="71.841"/>
	<g enable-background="new    ">
		<path fill="#FFFFFF" d="M20.321,40.78h0.203l7.152-35.625h10.053L26.663,53.33H14.181L3.116,5.155h10.391L20.321,40.78z"/>
		<path fill="#FFFFFF" d="M41.776,5.155h9.716V53.33h-9.716V5.155z"/>
		<path fill="#FFFFFF" d="M75.107,5.155c3.374,0,6.095,0.552,8.164,1.653c2.069,1.103,3.677,2.677,4.824,4.723
			c1.147,2.048,1.923,4.51,2.328,7.389s0.607,6.095,0.607,9.648c0,4.229-0.259,7.905-0.776,11.031
			c-0.518,3.127-1.406,5.701-2.665,7.726c-1.26,2.024-2.947,3.531-5.061,4.521c-2.115,0.99-4.79,1.484-8.029,1.484H59.184V5.155
			H75.107z M73.218,46.178c1.709,0,3.081-0.292,4.116-0.877c1.034-0.584,1.855-1.552,2.463-2.901s1.012-3.126,1.214-5.33
			c0.203-2.203,0.304-4.947,0.304-8.231c0-2.743-0.091-5.15-0.27-7.22c-0.18-2.068-0.551-3.789-1.113-5.161
			c-0.563-1.372-1.395-2.406-2.496-3.104c-1.103-0.697-2.576-1.046-4.419-1.046H68.9v33.87H73.218z"/>
	</g>
	<g enable-background="new    ">
		<path fill="#F8943F" d="M96.934,19.155c0.337-3.08,1.08-5.724,2.227-7.928c1.147-2.203,2.8-3.924,4.959-5.161
			s5.061-1.855,8.704-1.855s6.544,0.618,8.704,1.855s3.812,2.958,4.959,5.161c1.147,2.204,1.889,4.848,2.227,7.928
			c0.337,3.082,0.506,6.444,0.506,10.087c0,3.689-0.168,7.062-0.506,10.121c-0.337,3.06-1.08,5.691-2.227,7.895
			c-1.147,2.204-2.8,3.891-4.959,5.061c-2.159,1.169-5.06,1.754-8.704,1.754s-6.545-0.585-8.704-1.754
			c-2.159-1.17-3.812-2.856-4.959-5.061c-1.147-2.203-1.889-4.835-2.227-7.895c-0.337-3.059-0.506-6.432-0.506-10.121
			C96.427,25.6,96.596,22.237,96.934,19.155z M106.379,37.508c0.157,2.272,0.473,4.116,0.945,5.533s1.147,2.452,2.024,3.104
			c0.877,0.652,2.035,0.979,3.475,0.979c1.439,0,2.598-0.326,3.475-0.979c0.877-0.651,1.552-1.687,2.024-3.104
			c0.472-1.417,0.786-3.261,0.944-5.533c0.157-2.271,0.236-5.026,0.236-8.266c0-3.238-0.079-5.981-0.236-8.231
			c-0.158-2.248-0.472-4.092-0.944-5.532c-0.473-1.439-1.147-2.485-2.024-3.138c-0.877-0.651-2.036-0.979-3.475-0.979
			c-1.44,0-2.598,0.327-3.475,0.979c-0.877,0.652-1.552,1.698-2.024,3.138c-0.472,1.44-0.788,3.284-0.945,5.532
			c-0.158,2.25-0.236,4.993-0.236,8.231C106.144,32.481,106.221,35.237,106.379,37.508z"/>
		<path fill="#F8943F" d="M152.901,5.155c4.048,0,7.196,1.023,9.446,3.07c2.248,2.047,3.373,5.161,3.373,9.345
			c0,3.238-0.652,5.882-1.957,7.928c-1.305,2.047-3.328,3.363-6.072,3.947v0.135c2.43,0.36,4.205,1.146,5.33,2.361
			s1.822,3.171,2.092,5.87c0.09,0.9,0.157,1.879,0.203,2.936c0.044,1.057,0.09,2.237,0.135,3.542c0.09,2.563,0.225,4.521,0.404,5.87
			c0.27,1.35,0.854,2.271,1.754,2.766v0.405h-10.525c-0.495-0.675-0.809-1.45-0.944-2.328c-0.135-0.877-0.226-1.788-0.27-2.732
			l-0.271-9.243c-0.09-1.89-0.562-3.374-1.416-4.453c-0.855-1.08-2.295-1.62-4.318-1.62h-5.195V53.33h-9.717V5.155H152.901z
			 M148.718,26.206c2.339,0,4.138-0.55,5.397-1.652c1.26-1.102,1.89-2.958,1.89-5.566c0-4.453-2.25-6.68-6.747-6.68h-4.588v13.898
			H148.718z"/>
	</g>
	<g>
		<rect x="195.046" y="15.55" fill="none" width="69.067" height="42.865"/>
		<g enable-background="new    ">
			<path fill="#FFFFFF" d="M208.436,24.785v2.887h0.104c0.909-1.294,1.933-2.222,3.069-2.781s2.493-0.84,4.067-0.84
				c1.679,0,3.087,0.385,4.225,1.154c1.136,0.771,1.897,1.89,2.282,3.358h0.105c0.559-1.504,1.461-2.632,2.703-3.385
				c1.24-0.752,2.719-1.128,4.434-1.128c2.414,0,4.189,0.727,5.326,2.178c1.137,1.452,1.706,3.542,1.706,6.271v20.519h-7.241V33.287
				c0-1.189-0.22-2.1-0.656-2.729c-0.438-0.63-1.164-0.944-2.178-0.944c-1.154,0-2.073,0.386-2.756,1.154
				c-0.682,0.771-1.023,1.994-1.023,3.674v18.577h-7.242V33.287c0-1.189-0.219-2.1-0.655-2.729c-0.438-0.63-1.163-0.944-2.178-0.944
				c-1.155,0-2.073,0.386-2.755,1.154c-0.683,0.771-1.023,1.994-1.023,3.674v18.577h-7.242V24.785H208.436z"/>
			<path fill="#FFFFFF" d="M241.233,32.762c0-1.644,0.263-3.018,0.788-4.119c0.523-1.103,1.232-1.994,2.125-2.677
				c0.892-0.682,1.941-1.172,3.148-1.469s2.492-0.446,3.857-0.446c2.168,0,3.918,0.21,5.248,0.63
				c1.328,0.42,2.361,1.015,3.096,1.784s1.232,1.688,1.496,2.755c0.262,1.067,0.393,2.23,0.393,3.49v14.851
				c0,1.33,0.061,2.361,0.184,3.097c0.123,0.734,0.359,1.521,0.709,2.361h-6.928c-0.244-0.454-0.428-0.936-0.551-1.443
				c-0.123-0.507-0.236-1.005-0.341-1.495h-0.104c-0.84,1.469-1.811,2.423-2.913,2.859c-1.103,0.438-2.528,0.656-4.276,0.656
				c-1.26,0-2.328-0.219-3.201-0.656c-0.875-0.437-1.574-1.04-2.1-1.811c-0.525-0.769-0.91-1.635-1.154-2.598
				c-0.245-0.961-0.367-1.915-0.367-2.859c0-1.329,0.139-2.475,0.42-3.438c0.279-0.962,0.708-1.784,1.285-2.467
				c0.577-0.682,1.312-1.25,2.204-1.705c0.892-0.454,1.968-0.857,3.228-1.207l4.094-1.103c1.084-0.279,1.836-0.664,2.256-1.154
				c0.42-0.489,0.63-1.207,0.63-2.151c0-1.084-0.254-1.933-0.761-2.545c-0.508-0.612-1.373-0.919-2.598-0.919
				c-1.12,0-1.96,0.333-2.52,0.997c-0.56,0.665-0.84,1.558-0.84,2.677v0.787h-6.507V32.762z M252.884,39.82
				c-0.56,0.228-1.067,0.394-1.522,0.499c-1.469,0.314-2.519,0.839-3.148,1.574c-0.629,0.734-0.944,1.731-0.944,2.991
				c0,1.085,0.21,2.012,0.63,2.781s1.119,1.154,2.1,1.154c0.488,0,0.996-0.079,1.521-0.236c0.524-0.157,1.005-0.41,1.443-0.761
				c0.437-0.35,0.795-0.805,1.075-1.364s0.42-1.225,0.42-1.994v-5.562C253.968,39.287,253.443,39.593,252.884,39.82z"/>
		</g>
	</g>
	<g>
		<g>
			<defs>
				<rect id="SVGID_1_" x="172.727" y="4.949" width="24.797" height="27.682"/>
			</defs>
			<clipPath id="SVGID_2_">
				<use xlink:href="#SVGID_1_"  overflow="visible"/>
			</clipPath>
			<path clip-path="url(#SVGID_2_)" fill="#F8943F" d="M174.68,4.949c-1.171,0-1.953,0.842-1.953,2.099v23.484
				c0,1.255,0.782,2.099,1.953,2.099c0.638,0,1.066-0.175,1.514-0.432l20.044-11.473c0.318-0.183,1.286-0.738,1.286-1.938
				c0-1.197-0.968-1.758-1.286-1.938l-1.479-0.853c-1.326-4.379-5.397-7.578-10.209-7.578c-0.862,0-1.698,0.115-2.504,0.311
				l-5.85-3.351C175.746,5.12,175.316,4.949,174.68,4.949L174.68,4.949z M185.286,25.667L181.209,28
				c-3.605-1.352-6.177-4.825-6.177-8.909c0-5.265,4.253-9.517,9.516-9.517l0,0c5.263,0,9.517,4.252,9.517,9.517
				c0,0.561-0.062,1.106-0.154,1.639l-4.064,2.33"/>
		</g>
	</g>
	
		<line fill="#FFFFFF" stroke="#FFFFFF" stroke-width="2" stroke-miterlimit="10" x1="182.663" y1="13.432" x2="182.663" y2="21.589"/>
	
		<line fill="#FFFFFF" stroke="#FFFFFF" stroke-width="2" stroke-miterlimit="10" x1="186.751" y1="13.432" x2="186.751" y2="21.605"/>
</g>
</svg>
